<svg xmlns="http://www.w3.org/2000/svg" xmlns:xlink="http://www.w3.org/1999/xlink" viewBox="0 0 51.4 51.4"><defs><style>.cls-1,.cls-4{fill:none;}.cls-2{clip-path:url(#clip-path);}.cls-3{fill:#ffdf1c;}.cls-4{stroke:#231f20;stroke-width:0.1px;}.cls-5{fill:#231f20;}</style><clipPath id="clip-path" transform="translate(-1.3 -1.3)"><rect class="cls-1" width="54" height="54"/></clipPath></defs><title>Asset 5</title><g id="Layer_2" data-name="Layer 2"><g id="Layer_1-2" data-name="Layer 1"><g class="cls-2"><path class="cls-3" d="M25.31,51.95a2.39,2.39,0,0,0,3.38,0L51.95,28.69a2.39,2.39,0,0,0,0-3.38L28.69,2.05a2.39,2.39,0,0,0-3.38,0L2.05,25.31a2.39,2.39,0,0,0,0,3.38Z" transform="translate(-1.3 -1.3)"/><path class="cls-4" d="M25.31,51.95a2.39,2.39,0,0,0,3.38,0L51.95,28.69a2.39,2.39,0,0,0,0-3.38L28.69,2.05a2.39,2.39,0,0,0-3.38,0L2.05,25.31a2.39,2.39,0,0,0,0,3.38Z" transform="translate(-1.3 -1.3)"/><path class="cls-5" d="M51.5,25.75,28.25,2.5a1.76,1.76,0,0,0-2.5,0L2.5,25.75a1.76,1.76,0,0,0,0,2.49L25.75,51.5a1.76,1.76,0,0,0,2.5,0L51.5,28.25a1.76,1.76,0,0,0,0-2.49M27.58,50.84a.82.82,0,0,1-1.16,0L3.16,27.58a.82.82,0,0,1,0-1.16L26.42,3.16a.82.82,0,0,1,1.16,0L50.84,26.42a.82.82,0,0,1,0,1.16Z" transform="translate(-1.3 -1.3)"/><polygon class="cls-5" points="15.47 36.94 35.89 36.94 36.58 36.3 14.85 36.3 15.47 36.94"/><path class="cls-5" d="M25.67,14.85a1.77,1.77,0,1,0-1.78-1.77,1.78,1.78,0,0,0,1.78,1.77" transform="translate(-1.3 -1.3)"/><path class="cls-5" d="M33.1,23.51c-.55-1.41-.87-2.82-1.4-4.42l-2-.64,6.4,17.46-1.9.68L29.1,26.23l-2.73,4.7-.52,5.86-2.23-.12L24,29.76l3-5.7-1.65-4c-.6.44-1.17,1.1-1.81,1.54l-3.86,2.06-.82-1.25,4-2.88,3-4.17,1.52-.63,6.25,3.11,1,5.67Z" transform="translate(-1.3 -1.3)"/></g></g></g></svg>