<svg xmlns="http://www.w3.org/2000/svg" xmlns:xlink="http://www.w3.org/1999/xlink" viewBox="0 0 38.58 38.58"><defs><style>.cls-1,.cls-5{fill:none;}.cls-2{clip-path:url(#clip-path);}.cls-3{fill:#fff;}.cls-4{clip-path:url(#clip-path-2);}.cls-5{stroke:#231f20;stroke-width:0.07px;}.cls-6{fill:#231f20;}.cls-7{fill:#ef3e42;}</style><clipPath id="clip-path" transform="translate(0 0)"><rect class="cls-1" width="38.58" height="38.58"/></clipPath><clipPath id="clip-path-2" transform="translate(0 0)"><rect class="cls-1" width="38.58" height="38.58"/></clipPath></defs><title>Asset 7</title><g id="Layer_2" data-name="Layer 2"><g id="Layer_1-2" data-name="Layer 1"><g class="cls-2"><rect class="cls-3" x="0.03" y="0.03" width="38.51" height="38.51" rx="2.45" ry="2.45"/></g><g class="cls-4"><rect class="cls-5" x="0.03" y="0.03" width="38.51" height="38.51" rx="2.45" ry="2.45"/></g><g class="cls-2"><path class="cls-6" d="M36.1.68H2.48a1.8,1.8,0,0,0-1.8,1.8V36.1a1.8,1.8,0,0,0,1.8,1.8H36.1a1.8,1.8,0,0,0,1.8-1.8V2.48A1.8,1.8,0,0,0,36.1.68m.84,35.42a.84.84,0,0,1-.84.84H2.48a.84.84,0,0,1-.84-.84V2.48a.84.84,0,0,1,.84-.84H36.1a.84.84,0,0,1,.84.84Z" transform="translate(0 0)"/><path class="cls-7" d="M19.29,3.18A16.11,16.11,0,1,0,35.4,19.29,16.11,16.11,0,0,0,19.29,3.18" transform="translate(0 0)"/><rect class="cls-3" x="5.21" y="17.36" width="28.15" height="3.85"/></g></g></g></svg>