<?xml version="1.0" encoding="UTF-8" standalone="no"?>
<!-- Created with Inkscape (http://www.inkscape.org/) -->
<svg
   xmlns:svg="http://www.w3.org/2000/svg"
   xmlns="http://www.w3.org/2000/svg"
   version="1.0"
   width="600"
   height="736"
   viewBox="0 0 1 1"
   id="svg2">
  <defs
     id="defs355" />
  <desc
     id="desc6">This was produced by version 4.1 of GNU libplot, a free library for exporting 2-D vector graphics.</desc>
  <g
     transform="matrix(1.199957,0,0,1.199957,-0.276262,0.325152)"
     id="g2732">
    <path
       d="M 0.31333478,0.62087472 L 0.97928723,0.62087472 L 0.97988397,0.62087472 C 0.9918186,0.62087472 1.00435,0.61550418 1.0127042,0.60655325 C 1.0216552,0.59760236 1.0270258,0.58566781 1.0270258,0.57313653 L 1.0276225,0.57313653 L 1.0270258,-0.28257051 L 1.0276225,-0.28257051 C 1.0270258,-0.29507692 1.0216552,-0.30701147 1.0127042,-0.31598724 C 1.00435,-0.32491329 0.9918186,-0.32971197 0.97928723,-0.32971197 L 0.97988397,-0.32971197 L 0.31333478,-0.32971197 L 0.31393151,-0.32971197 C 0.30140015,-0.32971197 0.28886878,-0.32491329 0.27991781,-0.31598724 C 0.27096683,-0.30701147 0.26619298,-0.29507692 0.26619298,-0.28257051 L 0.26678972,-0.28257051 L 0.26619298,0.57313653 L 0.26678972,0.57313653 C 0.26619298,0.58927303 0.27454723,0.60476308 0.28827205,0.61373885 C 0.29602956,0.61848782 0.30438381,0.61968126 0.31333478,0.62087472 L 0.31393151,0.62087472 L 0.31333478,0.62087472 z "
       style="font-style:normal;font-variant:normal;font-weight:normal;font-stretch:normal;letter-spacing:normal;word-spacing:normal;text-anchor:start;fill:#ffffff;fill-opacity:1;stroke:#1e1916;stroke-width:0.00248662;stroke-linecap:butt;stroke-linejoin:miter;stroke-miterlimit:10.43299961;stroke-dasharray:none;stroke-dashoffset:0;stroke-opacity:1"
       id="path14" />
    <path
       d="M 0.27812761,0.57313653 L 0.27812761,-0.28257051 L 0.27872435,-0.28257051 C 0.27812761,-0.29209328 0.28170801,-0.30106906 0.28827205,-0.30763306 C 0.29543284,-0.3141722 0.30438381,-0.31775256 0.31333478,-0.31775256 L 0.31393151,-0.31775256 L 0.97928723,-0.31775256 L 0.97988397,-0.31775256 C 0.98883494,-0.31775256 0.99778592,-0.3141722 1.00435,-0.30763306 C 1.010914,-0.30106906 1.0150911,-0.29209328 1.0150911,-0.28257051 L 1.0156879,-0.28257051 L 1.0150911,0.57313653 L 1.0156879,0.57313653 C 1.0150911,0.58268417 1.010914,0.59163507 1.00435,0.59819908 C 0.99778592,0.60476308 0.98883494,0.60836831 0.97928723,0.60836831 L 0.97988397,0.60836831 L 0.31333478,0.60836831 L 0.31393151,0.60836831 C 0.30438381,0.60836831 0.29543284,0.60476308 0.28827205,0.59819908 C 0.28170801,0.59163507 0.27812761,0.58268417 0.27812761,0.57313653 L 0.27872435,0.57313653"
       style="font-style:normal;font-variant:normal;font-weight:normal;font-stretch:normal;letter-spacing:normal;word-spacing:normal;text-anchor:start;fill:#000000;fill-opacity:1;stroke:#000000;stroke-width:0;stroke-linecap:round;stroke-linejoin:round;stroke-miterlimit:10.43299961;stroke-dasharray:none;stroke-dashoffset:0;stroke-opacity:1"
       id="path16" />
    <path
       d="M 0.29841649,0.57313653 L 0.29841649,0.57393216 L 0.29846622,0.57467807 L 0.29854081,0.57542398 L 0.29864027,0.57616989 L 0.29871486,0.57654285 L 0.29878944,0.57689094 L 0.29886404,0.57723904 L 0.29893863,0.57758712 L 0.29903808,0.57793521 L 0.29913755,0.57828331 L 0.29926186,0.57863139 L 0.29938618,0.57897949 L 0.2995105,0.57930271 L 0.29965968,0.57962594 L 0.29980886,0.57994916 L 0.29995805,0.5802724 L 0.3001321,0.58059562 L 0.30030613,0.58091884 L 0.30048019,0.58124208 L 0.3006791,0.58154044 L 0.30087801,0.5818388 L 0.30110179,0.58216202 L 0.30132555,0.5824604 L 0.30154933,0.5827339 L 0.30179796,0.58303226 L 0.3020466,0.58333062 L 0.30232012,0.58360412 L 0.30259362,0.58390248 C 0.30557728,0.58686125 0.30975438,0.58865145 0.31333478,0.58865145 L 0.31393151,0.58865145 L 0.97928723,0.58865145 L 0.97988397,0.58865145 C 0.98346435,0.58865145 0.98764148,0.58686125 0.9900284,0.58390248 C 0.99301205,0.58091884 0.99480226,0.57731362 0.99480226,0.57313653 L 0.99539899,0.57313653 L 0.99480226,-0.28257051 L 0.99539899,-0.28257051 C 0.99480226,-0.28672274 0.99301205,-0.29032797 0.9900284,-0.2933116 C 0.98764148,-0.29629524 0.98346435,-0.29808542 0.97928723,-0.29808542 L 0.97988397,-0.29808542 L 0.31333478,-0.29808542 L 0.31393151,-0.29808542 C 0.30975438,-0.29808542 0.30557728,-0.29629524 0.30259362,-0.2933116 C 0.29960996,-0.29032797 0.29841649,-0.28672274 0.29841649,-0.28257051 L 0.29901322,-0.28257051 L 0.29841649,0.57313653 z "
       style="font-style:normal;font-variant:normal;font-weight:normal;font-stretch:normal;letter-spacing:normal;word-spacing:normal;text-anchor:start;fill:#ffffff;fill-opacity:1;stroke:#ffffff;stroke-width:0;stroke-linecap:round;stroke-linejoin:round;stroke-miterlimit:10.43299961;stroke-dasharray:none;stroke-dashoffset:0;stroke-opacity:1"
       id="path18" />
    <path
       d="M 0.40065421,-0.20438403 C 0.3743765,-0.20404523 0.35627793,-0.18944104 0.35627793,-0.16738191 C 0.35627793,-0.15935719 0.35866169,-0.15136508 0.36398398,-0.14565894 C 0.36409173,-0.14554343 0.36420598,-0.14544042 0.36431615,-0.14532679 L 0.36491403,-0.14486177 L 0.36597694,-0.14413103 L 0.36697341,-0.14346672 L 0.36796989,-0.14280241 L 0.36903278,-0.14220453 C 0.37668566,-0.13840469 0.38817849,-0.13517609 0.40603517,-0.13071195 C 0.42261633,-0.12688554 0.42709398,-0.12373664 0.42709398,-0.11669499 C 0.42709395,-0.10840443 0.41942769,-0.1032759 0.40603517,-0.1032759 C 0.39328037,-0.1032759 0.38243862,-0.10710239 0.37414802,-0.11603067 L 0.35627793,-0.10008721 C 0.36967042,-0.086057032 0.38626526,-0.079692865 0.40603517,-0.079692865 C 0.43282018,-0.079692865 0.45134149,-0.094374271 0.45134149,-0.11669499 C 0.45134152,-0.12473595 0.44898048,-0.13270948 0.44363543,-0.13841795 L 0.4427054,-0.1391487 L 0.44170892,-0.13987944 L 0.44064601,-0.14061018 L 0.43964954,-0.14127449 L 0.43858663,-0.14187237 C 0.43093374,-0.14567221 0.41944094,-0.14883438 0.40158426,-0.15329852 C 0.38500307,-0.15712493 0.38052545,-0.16034026 0.38052545,-0.16738191 C 0.38052545,-0.17567246 0.38819174,-0.18073456 0.40158426,-0.18073456 C 0.41433905,-0.18073456 0.42518081,-0.17690807 0.4334714,-0.16797979 L 0.45134149,-0.18392325 C 0.43794902,-0.19795341 0.42135417,-0.20438403 0.40158426,-0.20438403 C 0.40127036,-0.20438403 0.40096581,-0.20438805 0.40065421,-0.20438403 z "
       style="font-style:normal;font-variant:normal;font-weight:normal;font-stretch:normal;letter-spacing:normal;word-spacing:normal;text-anchor:start;fill:#1e1916;fill-opacity:1;fill-rule:nonzero;stroke:#1e1916;stroke-width:0;stroke-linecap:round;stroke-linejoin:round;stroke-miterlimit:10.43299961;stroke-dasharray:none;stroke-dashoffset:0;stroke-opacity:1"
       id="path20" />
    <path
       d="M 0.4786087,-0.20438483 L 0.4786087,-0.079692862 L 0.50191867,-0.079692862 L 0.50191867,-0.12861239 L 0.5371012,-0.12861239 C 0.54664893,-0.12861239 0.5520072,-0.12981831 0.55916798,-0.13339867 C 0.57110261,-0.13996268 0.57831325,-0.15309089 0.57831325,-0.16621889 L 0.57825109,-0.16752424 L 0.57818893,-0.16882959 L 0.57806461,-0.17013494 L 0.57794029,-0.17144029 L 0.57775381,-0.17274564 L 0.57756733,-0.17398883 L 0.57725653,-0.17523202 L 0.57694573,-0.17647521 L 0.57663493,-0.17765624 L 0.57626197,-0.17883727 L 0.57582685,-0.1800183 L 0.57539173,-0.18113717 L 0.57489445,-0.18225604 L 0.57433501,-0.18337491 L 0.57383773,-0.18443163 L 0.57321613,-0.1855505 L 0.57259453,-0.18654505 L 0.57191077,-0.1875396 L 0.57122701,-0.18853415 L 0.57048109,-0.18952871 L 0.56973517,-0.1904611 L 0.56892709,-0.19139349 L 0.56805685,-0.19226372 L 0.56718662,-0.19313396 L 0.56631638,-0.19400419 L 0.56538398,-0.1947501 L 0.56438942,-0.19555818 L 0.56345702,-0.19630409 L 0.5624003,-0.19705001 L 0.56134358,-0.19773376 L 0.56028686,-0.19835535 L 0.55916798,-0.19903911 C 0.5520072,-0.2032162 0.54664891,-0.20438483 0.5371012,-0.20438483 L 0.4786087,-0.20438483 z M 0.50191867,-0.1823182 L 0.5377228,-0.1823182 C 0.54846394,-0.18231821 0.55618431,-0.17636326 0.55618431,-0.16621889 L 0.55618431,-0.16534866 L 0.55612215,-0.16454059 L 0.55599783,-0.16373251 L 0.55587351,-0.16292444 L 0.55568703,-0.16217852 L 0.55543839,-0.16143261 L 0.55512759,-0.1606867 L 0.55481679,-0.16000294 L 0.55444383,-0.15931919 L 0.55407087,-0.15863543 L 0.55363575,-0.15795168 L 0.55320063,-0.15733008 L 0.55270335,-0.15677065 L 0.55214391,-0.15614905 L 0.55158447,-0.15558962 L 0.55096287,-0.15509234 L 0.55034127,-0.15459506 L 0.54971967,-0.15409779 L 0.54897375,-0.15366267 L 0.54828999,-0.15322756 L 0.54754407,-0.1528546 L 0.54673599,-0.15248164 L 0.54592791,-0.15217084 L 0.54511984,-0.15186005 L 0.5442496,-0.15161141 L 0.54337936,-0.15136277 L 0.54250912,-0.15111413 L 0.54157672,-0.15098981 L 0.54064432,-0.15086549 L 0.53964976,-0.15074118 L 0.53871736,-0.15067902 L 0.5377228,-0.15067902 L 0.50191867,-0.15067902 L 0.50191867,-0.1823182 z "
       style="font-style:normal;font-variant:normal;font-weight:normal;font-stretch:normal;letter-spacing:normal;word-spacing:normal;text-anchor:start;fill:#1e1916;fill-opacity:1;fill-rule:nonzero;stroke:#1e1916;stroke-width:0;stroke-linecap:round;stroke-linejoin:round;stroke-miterlimit:10.43299961;stroke-dasharray:none;stroke-dashoffset:0;stroke-opacity:1"
       id="path22" />
    <polygon
       points="343.44,607.85 343.44,616.73 315.12,616.73 315.12,630.65 330,630.65 330,639.77 315.12,639.77 315.12,649.12 342.48,649.12 342.48,658.01 306,658.01 306,607.85 343.44,607.85 "
       transform="matrix(2.486382e-3,0,0,-2.486364e-3,-0.159277,1.431653)"
       style="font-style:normal;font-variant:normal;font-weight:normal;font-stretch:normal;letter-spacing:normal;word-spacing:normal;text-anchor:start;fill:#1e1916;fill-opacity:1;fill-rule:nonzero;stroke:#1e1916;stroke-width:0;stroke-linecap:butt;stroke-linejoin:round;stroke-miterlimit:10.43299961;stroke-dasharray:none;stroke-dashoffset:0;stroke-opacity:1"
       id="polygon26" />
    <polygon
       points="391.68,607.85 391.68,616.73 363.6,616.73 363.6,630.65 378.48,630.65 378.48,639.77 363.6,639.77 363.6,649.12 390.96,649.12 390.96,658.01 354.24,658.01 354.24,607.85 391.68,607.85 "
       transform="matrix(2.486382e-3,0,0,-2.486364e-3,-0.159277,1.431653)"
       style="font-style:normal;font-variant:normal;font-weight:normal;font-stretch:normal;letter-spacing:normal;word-spacing:normal;text-anchor:start;fill:#1e1916;fill-opacity:1;fill-rule:nonzero;stroke:#1e1916;stroke-width:0;stroke-linecap:butt;stroke-linejoin:round;stroke-miterlimit:10.43299961;stroke-dasharray:none;stroke-dashoffset:0;stroke-opacity:1"
       id="polygon28" />
    <path
       d="M 0.84205788,-0.20438483 L 0.84205788,-0.079692862 L 0.88202673,-0.079692862 C 0.89217119,-0.079692864 0.90288764,-0.082042527 0.9112419,-0.086841205 C 0.93153083,-0.098154163 0.94170027,-0.1172871 0.94170027,-0.14234964 L 0.94163811,-0.14458738 L 0.94157595,-0.14682513 L 0.94138947,-0.14906287 L 0.94120299,-0.15123845 L 0.94095435,-0.15335187 L 0.94064355,-0.1554653 L 0.94020843,-0.15751656 L 0.93977332,-0.15956782 L 0.93927604,-0.16155693 L 0.9387166,-0.16348387 L 0.938095,-0.16541082 L 0.93741124,-0.1672756 L 0.93666532,-0.16914039 L 0.9359194,-0.17088085 L 0.93504916,-0.17268348 L 0.93417892,-0.17442395 L 0.93318436,-0.17610225 L 0.9321898,-0.1777184 L 0.93107092,-0.17933455 L 0.92995204,-0.18095069 L 0.92870885,-0.18244252 L 0.92746565,-0.18393435 L 0.92616029,-0.18542618 L 0.92479277,-0.18679369 L 0.92336309,-0.1881612 L 0.92193341,-0.18952871 L 0.92037941,-0.1907719 L 0.91876325,-0.19201509 L 0.9171471,-0.19325828 L 0.91540662,-0.19443931 L 0.91366614,-0.19555818 L 0.9118635,-0.19661489 C 0.90291247,-0.20198543 0.89276789,-0.20438483 0.88202673,-0.20438483 L 0.84205788,-0.20438483 z M 0.8646841,-0.1823182 L 0.88202673,-0.1823182 C 0.88859078,-0.18231821 0.89514252,-0.18051556 0.90110983,-0.17753192 C 0.91304446,-0.17034632 0.91963349,-0.15905801 0.91963349,-0.14234964 L 0.91957133,-0.1407335 L 0.91950917,-0.13917951 L 0.91944701,-0.13762552 L 0.91926053,-0.13613369 L 0.91913621,-0.13464186 L 0.91888757,-0.1332122 L 0.91863893,-0.13184469 L 0.91839029,-0.13047718 L 0.91801734,-0.12910967 L 0.91764438,-0.12780432 L 0.91727142,-0.12649897 L 0.9168363,-0.12525578 L 0.91633902,-0.12407475 L 0.91584174,-0.12289372 L 0.9152823,-0.12177485 L 0.9146607,-0.12065598 L 0.9140391,-0.1195371 L 0.91335534,-0.11848039 L 0.91267158,-0.11742368 L 0.91192566,-0.11642913 L 0.91111758,-0.11543458 L 0.9103095,-0.11450219 L 0.90943926,-0.11356979 L 0.90850686,-0.11269956 L 0.90757446,-0.11182933 L 0.90657991,-0.11102125 L 0.90558535,-0.11021318 L 0.90452863,-0.10940511 L 0.90340975,-0.10865919 L 0.90229087,-0.10791328 L 0.90110983,-0.10722952 L 0.89992879,-0.10654577 C 0.89515497,-0.10356214 0.88859078,-0.10175949 0.88202673,-0.10175949 L 0.8646841,-0.10175949 L 0.8646841,-0.1823182 z "
       style="font-style:normal;font-variant:normal;font-weight:normal;font-stretch:normal;letter-spacing:normal;word-spacing:normal;text-anchor:start;fill:#1e1916;fill-opacity:1;fill-rule:nonzero;stroke:#1e1916;stroke-width:0;stroke-linecap:round;stroke-linejoin:round;stroke-miterlimit:10.43299961;stroke-dasharray:none;stroke-dashoffset:0;stroke-opacity:1"
       id="path30" />
    <polygon
       points="267.84,530.57 267.84,538.25 239.52,538.25 239.52,580.73 230.4,580.73 230.4,530.57 267.84,530.57 "
       transform="matrix(2.486382e-3,0,0,-2.486364e-3,-0.159277,1.431653)"
       style="font-style:normal;font-variant:normal;font-weight:normal;font-stretch:normal;letter-spacing:normal;word-spacing:normal;text-anchor:start;fill:#1e1916;fill-opacity:1;fill-rule:nonzero;stroke:#1e1916;stroke-width:0;stroke-linecap:butt;stroke-linejoin:round;stroke-miterlimit:10.43299961;stroke-dasharray:none;stroke-dashoffset:0;stroke-opacity:1"
       id="polygon34" />
    <polygon
       points="277.2,530.57 286.32,530.57 286.32,580.73 277.2,580.73 277.2,530.57 "
       transform="matrix(2.486382e-3,0,0,-2.486364e-3,-0.159277,1.431653)"
       style="font-style:normal;font-variant:normal;font-weight:normal;font-stretch:normal;letter-spacing:normal;word-spacing:normal;text-anchor:start;fill:#1e1916;fill-opacity:1;stroke:#1e1916;stroke-width:0;stroke-linecap:butt;stroke-linejoin:round;stroke-miterlimit:10.43299961;stroke-dasharray:none;stroke-dashoffset:0;stroke-opacity:1"
       id="polygon36" />
    <polygon
       points="346.32,530.57 346.32,580.73 337.68,580.73 322.8,550.97 308.4,580.73 299.52,580.73 299.52,530.57 308.4,530.57 308.4,561.28 322.8,530.57 337.68,561.28 337.68,530.57 346.32,530.57 "
       transform="matrix(2.486382e-3,0,0,-2.486364e-3,-0.159277,1.431653)"
       style="font-style:normal;font-variant:normal;font-weight:normal;font-stretch:normal;letter-spacing:normal;word-spacing:normal;text-anchor:start;fill:#1e1916;fill-opacity:1;fill-rule:nonzero;stroke:#1e1916;stroke-width:0;stroke-linecap:butt;stroke-linejoin:round;stroke-miterlimit:10.43299961;stroke-dasharray:none;stroke-dashoffset:0;stroke-opacity:1"
       id="polygon38" />
    <polygon
       points="360.72,530.57 369.6,530.57 369.6,580.73 360.72,580.73 360.72,530.57 "
       transform="matrix(2.486382e-3,0,0,-2.486364e-3,-0.159277,1.431653)"
       style="font-style:normal;font-variant:normal;font-weight:normal;font-stretch:normal;letter-spacing:normal;word-spacing:normal;text-anchor:start;fill:#1e1916;fill-opacity:1;stroke:#1e1916;stroke-width:0;stroke-linecap:butt;stroke-linejoin:round;stroke-miterlimit:10.43299961;stroke-dasharray:none;stroke-dashoffset:0;stroke-opacity:1"
       id="polygon40" />
    <polygon
       points="415.92,572.09 415.92,580.73 378.24,580.73 378.24,572.09 392.64,572.09 392.64,530.57 401.52,530.57 401.52,572.09 415.92,572.09 "
       transform="matrix(2.486382e-3,0,0,-2.486364e-3,-0.159277,1.431653)"
       style="font-style:normal;font-variant:normal;font-weight:normal;font-stretch:normal;letter-spacing:normal;word-spacing:normal;text-anchor:start;fill:#1e1916;fill-opacity:1;fill-rule:nonzero;stroke:#1e1916;stroke-width:0;stroke-linecap:butt;stroke-linejoin:round;stroke-miterlimit:10.43299961;stroke-dasharray:none;stroke-dashoffset:0;stroke-opacity:1"
       id="polygon42" />
    <path
       d="M 0.60632999,0.37442632 L 0.60618081,0.36843418 L 0.60573326,0.36256636 L 0.60498735,0.35677313 L 0.60399279,0.35110422 L 0.60269988,0.34555963 L 0.60113345,0.34016422 L 0.59929353,0.33486827 L 0.59720496,0.32972149 L 0.59486777,0.3247239 L 0.59228194,0.31985062 L 0.58944745,0.31515139 L 0.58636435,0.31062621 L 0.58308233,0.30625022 L 0.57955165,0.30204826 L 0.57582208,0.29802036 L 0.57186875,0.29419135 L 0.56771648,0.2905364 L 0.56334045,0.28708036 L 0.55879037,0.28382322 L 0.55404139,0.28076498 L 0.54911835,0.27790567 L 0.54402127,0.27529498 L 0.53875013,0.27288322 L 0.53330497,0.27072008 L 0.5277106,0.26878071 L 0.52196706,0.26708998 L 0.51607433,0.26562302 L 0.51003243,0.26442958 L 0.5038662,0.26348476 L 0.4975508,0.26281344 L 0.49113593,0.26239075 L 0.48459675,0.26226644 C 0.4649046,0.26226644 0.44998631,0.26403176 0.42492359,0.26940231 L 0.42790725,0.22524448 L 0.58126726,0.22524448 L 0.58246072,0.17034556 L 0.3759916,0.17034556 L 0.36584716,0.31656862 L 0.42193993,0.33086522 C 0.44461573,0.32193918 0.46072749,0.31893068 0.48101635,0.31893068 C 0.50369215,0.31893068 0.52040065,0.32310776 0.53114181,0.33205868 C 0.54307644,0.34160631 0.55023723,0.35831468 0.55023723,0.37442632 C 0.55023723,0.41082668 0.52219084,0.431737 0.47564578,0.431737 C 0.44461573,0.431737 0.41298896,0.42276123 0.3855393,0.40488427 L 0.35629946,0.45500937 C 0.39508701,0.48124052 0.43387457,0.49317507 0.47564578,0.49317507 C 0.55143068,0.49317507 0.60632999,0.44364669 0.60632999,0.37442632 z "
       style="font-style:normal;font-variant:normal;font-weight:normal;font-stretch:normal;letter-spacing:normal;word-spacing:normal;text-anchor:start;fill:#1e1916;fill-opacity:1;fill-rule:nonzero;stroke:#1e1916;stroke-width:0;stroke-linecap:round;stroke-linejoin:round;stroke-miterlimit:10.43299961;stroke-dasharray:none;stroke-dashoffset:0;stroke-opacity:1"
       id="path44" />
    <path
       d="M 0.80171608,0.17155585 C 0.71251636,0.17277238 0.67379092,0.25096337 0.67379092,0.33205169 C 0.67379094,0.41320662 0.71193284,0.49316912 0.80382952,0.49316912 C 0.89751639,0.49316912 0.93330868,0.41026025 0.93330868,0.33087065 L 0.93318436,0.32347367 L 0.93287356,0.31607669 L 0.93237628,0.30874187 L 0.9315682,0.30140705 L 0.93057364,0.29413439 L 0.92933044,0.28692389 L 0.92790077,0.27977554 L 0.92622245,0.27275152 L 0.92423333,0.26585181 L 0.92205773,0.25901427 L 0.91963349,0.2523632 L 0.91689846,0.24583645 L 0.91391478,0.23949619 L 0.91074462,0.23334239 L 0.90726366,0.22743724 L 0.90347191,0.22165641 L 0.89949367,0.21618637 L 0.89514248,0.21090281 L 0.8906048,0.20593005 L 0.88569416,0.20120593 L 0.88059705,0.19673045 L 0.87512697,0.19262792 L 0.86940826,0.18883619 L 0.86331659,0.18535526 L 0.85697627,0.18224728 L 0.85038732,0.17951226 L 0.8434254,0.1771502 L 0.83615269,0.1751611 L 0.82850702,0.17360711 L 0.8206127,0.17248824 L 0.81240759,0.17180449 L 0.80382952,0.17155585 C 0.8031209,0.17155585 0.80241844,0.17154626 0.80171608,0.17155585 z M 0.80190256,0.22706428 C 0.80253627,0.22704851 0.80318616,0.22706428 0.80382952,0.22706428 C 0.85037459,0.22706428 0.87842145,0.26643653 0.87842145,0.33205169 L 0.87835929,0.33683797 L 0.87811065,0.34268096 L 0.87767553,0.34839963 L 0.87711609,0.35393183 L 0.87637017,0.35933971 L 0.87549993,0.36462326 L 0.87444321,0.36972034 L 0.87326218,0.37463094 L 0.87189466,0.37947939 L 0.87040282,0.38407919 L 0.8687245,0.38855467 L 0.86692186,0.39278152 L 0.8649949,0.39688405 L 0.86294363,0.40086226 L 0.86070587,0.40459183 L 0.85834379,0.40813492 L 0.85585739,0.41155369 L 0.85324667,0.41472382 L 0.85051164,0.41770748 L 0.84765228,0.42050466 L 0.84460644,0.4230532 L 0.84149844,0.42547742 L 0.83826613,0.42759084 L 0.83484733,0.42957995 L 0.83136637,0.43132041 L 0.8277611,0.43281224 L 0.8240315,0.43411759 L 0.82023974,0.4351743 L 0.81632367,0.43604453 L 0.81228327,0.43660397 L 0.80811856,0.43697693 L 0.80382952,0.43710125 C 0.75788119,0.43710127 0.72923759,0.39951917 0.72923759,0.33087065 C 0.72923759,0.28546112 0.74845999,0.22839496 0.80190256,0.22706428 z "
       style="font-style:normal;font-variant:normal;font-weight:normal;font-stretch:normal;letter-spacing:normal;word-spacing:normal;text-anchor:start;fill:#1e1916;fill-opacity:1;fill-rule:nonzero;stroke:#1e1916;stroke-width:0;stroke-linecap:round;stroke-linejoin:round;stroke-miterlimit:10.43299961;stroke-dasharray:none;stroke-dashoffset:0;stroke-opacity:1"
       id="path46" />
  </g>
</svg>
