<svg width="1462" height="1464" viewBox="0 0 1462 1464" fill="none" xmlns="http://www.w3.org/2000/svg">
<path d="M1447 1027.04C1447 1031.03 1445.41 1034.86 1442.58 1037.67L1033.82 1444.63C1031.01 1447.43 1027.2 1449 1023.23 1449H438.768C434.801 1449 430.996 1447.43 428.185 1444.63L19.417 1037.67C16.5896 1034.86 15.0001 1031.03 15 1027.04V436.956C15.0001 432.966 16.5896 429.141 19.417 426.326L428.185 19.3701L428.45 19.1113C431.233 16.4746 434.925 15 438.768 15H1023.23L1023.6 15.0049C1027.44 15.0997 1031.09 16.659 1033.82 19.3701L1442.58 426.326C1445.41 429.141 1447 432.966 1447 436.956V1027.04Z" fill="#CB3232" stroke="white" stroke-width="30" stroke-linejoin="round"/>
<path d="M384.8 831.9C384.8 851.033 381.3 869 374.3 885.8C367.767 902.133 358.433 916.367 346.3 928.5C334.633 940.633 320.867 950.433 305 957.9C289.6 964.9 272.8 968.4 254.6 968.4C234.067 968.4 215.633 964.433 199.3 956.5C182.967 948.567 169.2 937.833 158 924.3C146.8 910.767 138.167 895.133 132.1 877.4C126.033 859.667 123 841.233 123 822.1H188.8C188.8 831.9 189.967 841.7 192.3 851.5C195.1 860.833 199.067 869.467 204.2 877.4C209.8 884.867 216.567 890.933 224.5 895.6C232.9 900.267 242.933 902.6 254.6 902.6C263.467 902.6 271.867 900.733 279.8 897C288.2 893.267 295.2 888.133 300.8 881.6C306.867 875.067 311.533 867.6 314.8 859.2C318.533 850.333 320.4 841.233 320.4 831.9C320.4 818.367 317.6 806.467 312 796.2C306.4 785.467 296.6 774.733 282.6 764C280.267 761.667 279.333 760.5 279.8 760.5C280.267 760.033 278.867 758.633 275.6 756.3C272.333 753.967 265.333 749.533 254.6 743C244.333 736 227.3 724.333 203.5 708C184.367 694.933 169.9 679.767 160.1 662.5C150.767 644.767 146.1 625.4 146.1 604.4C146.1 587.6 149.133 571.967 155.2 557.5C161.267 542.567 169.667 529.5 180.4 518.3C191.6 507.1 204.433 498.467 218.9 492.4C233.367 485.867 249 482.6 265.8 482.6C282.6 482.6 298 485.633 312 491.7C326.467 497.767 338.833 506.167 349.1 516.9C359.833 527.633 368.233 540.467 374.3 555.4C380.833 570.333 384.333 586.667 384.8 604.4H320.4C319.467 588.067 313.867 575 303.6 565.2C293.333 555.4 280.733 550.5 265.8 550.5C250.4 550.5 237.333 555.633 226.6 565.9C215.867 576.167 210.5 589 210.5 604.4C210.5 616.067 213.533 625.867 219.6 633.8C225.667 641.733 237.333 650.6 254.6 660.4C299.867 686.533 332.767 713.133 353.3 740.2C374.3 767.267 384.8 797.833 384.8 831.9ZM580.871 553.3V960H512.971V553.3H427.571V491H666.271V553.3H580.871ZM997.273 724.8C997.273 760.733 995.173 791.3 990.973 816.5C987.239 841.7 980.473 865.5 970.673 887.9C959.006 915.9 944.306 936.433 926.573 949.5C909.306 962.1 887.373 968.4 860.773 968.4C832.773 968.4 809.906 962.1 792.173 949.5C774.906 936.433 760.439 915.9 748.773 887.9C738.973 865.033 731.973 841.233 727.773 816.5C724.039 791.3 722.173 760.733 722.173 724.8C722.173 689.333 724.039 659 727.773 633.8C731.973 608.133 738.973 584.1 748.773 561.7C760.906 533.7 775.606 513.633 792.873 501.5C810.606 488.9 833.239 482.6 860.773 482.6C887.839 482.6 910.006 488.9 927.273 501.5C944.539 513.633 959.006 534.167 970.673 563.1C975.339 574.767 979.306 586.433 982.573 598.1C986.306 609.767 989.106 622.133 990.973 635.2C993.306 647.8 994.939 661.567 995.873 676.5C996.806 690.967 997.273 707.067 997.273 724.8ZM932.873 724.8C932.873 711.733 932.406 699.833 931.473 689.1C931.006 678.367 930.073 668.567 928.673 659.7C927.739 650.367 926.339 641.5 924.473 633.1C922.606 624.7 920.506 616.3 918.173 607.9C912.106 586.9 904.406 571.733 895.073 562.4C886.206 553.067 874.773 548.4 860.773 548.4C831.839 548.4 812.006 567.767 801.273 606.5C795.673 624.233 791.706 642.2 789.373 660.4C787.506 678.133 786.573 700.067 786.573 726.2C786.573 738.8 786.806 750.467 787.273 761.2C788.206 771.467 789.139 781.267 790.073 790.6C791.473 799.467 793.106 808.333 794.973 817.2C796.839 826.067 798.939 835.167 801.273 844.5C812.006 883.233 831.839 902.6 860.773 902.6C874.773 902.6 886.206 897.933 895.073 888.6C904.406 879.267 912.106 864.567 918.173 844.5C920.973 835.167 923.306 826.3 925.173 817.9C927.039 809.033 928.439 799.933 929.373 790.6C930.773 781.267 931.706 771.467 932.173 761.2C932.639 750.467 932.873 738.333 932.873 724.8ZM1354.03 622.6C1354.03 665.533 1343.29 698.2 1321.83 720.6C1300.83 743 1270.49 754.2 1230.83 754.2H1158.03V960H1090.83V491H1230.83C1249.03 491 1265.59 494.267 1280.53 500.8C1295.93 506.867 1308.99 515.733 1319.73 527.4C1330.93 538.6 1339.33 552.367 1344.93 568.7C1350.99 585.033 1354.03 603 1354.03 622.6ZM1288.23 622.6C1288.23 603 1282.63 587.133 1271.43 575C1260.23 562.867 1245.53 556.8 1227.33 556.8H1158.03V689.8H1227.33C1246.93 689.8 1261.86 683.967 1272.13 672.3C1282.86 660.633 1288.23 644.067 1288.23 622.6Z" fill="white"/>
</svg>
